<svg width="100" height="37" viewBox="0 0 100 37" fill="none" xmlns="http://www.w3.org/2000/svg">
<g clip-path="url(#clip0_65_13150)">
<path d="M60.0155 0.154209C63.1116 -0.00777555 65.4914 2.39752 65.3322 5.52533C65.1718 8.65314 62.5325 11.3195 59.4375 11.4803C56.3414 11.6423 53.9616 9.23698 54.1208 6.10917C54.2812 2.98136 56.9205 0.315028 60.0155 0.154209Z" fill="white"/>
<path d="M71.3758 27.0898L62.8327 35.6505C59.9119 38.5581 54.9712 36.4546 54.9908 32.3129L55.0081 28.5745C55.0162 26.6831 52.7529 25.7287 51.4275 27.0665L42.8809 35.6354C39.9635 38.5488 35.016 36.4453 35.0356 32.3013L35.0529 28.2191C35.0644 26.3242 32.7977 25.3698 31.4757 26.7088L22.9291 35.2718C20.0118 38.1828 15.0677 36.0794 15.0873 31.9377V31.9354L15.1046 27.8496V27.8357C15.1046 25.9524 12.8459 25.0062 11.5274 26.3393L1.55614 36.408C1.38541 36.5805 1.15355 36.6795 0.913611 36.6795C0.365675 36.6795 0 36.225 0 35.7531C0 35.527 0.0842091 35.2963 0.268777 35.1098L25.265 9.72605C26.4278 8.54321 28.4292 9.3846 28.42 11.0534L28.3727 21.1186C28.3612 23.391 31.0812 24.54 32.6743 22.9342L45.2087 10.1666C46.3738 8.97789 48.3775 9.81928 48.3695 11.4881L48.3279 21.1244C48.3164 23.4003 51.0388 24.5459 52.6295 22.9365L65.1617 10.1351C66.3244 8.9441 68.3339 9.77965 68.3258 11.4531L68.2786 21.0917C68.267 23.3677 70.9894 24.5109 72.5824 22.9039L94.869 0.319307C95.0674 0.116535 95.3408 0 95.6234 0C96.2636 0 96.6882 0.530236 96.6882 1.08378C96.6882 1.34948 96.5936 1.61751 96.3755 1.83776L93.0579 5.18583C90.0091 8.26586 88.2961 12.4448 88.2961 16.8009V18.3089C88.2961 21.5218 92.1443 23.1311 94.3914 20.861L98.4635 16.7473C99.031 16.1716 100.001 16.5807 100.001 17.3906V17.7693C100.001 18.0152 99.9066 18.246 99.7358 18.4184L82.8052 35.52C79.8959 38.459 74.9207 36.3637 74.9403 32.2081L74.9576 28.5966C74.9657 26.7053 72.7024 25.7508 71.377 27.0887" fill="white"/>
</g>
<defs>
<clipPath id="clip0_65_13150">
<rect width="100" height="37" fill="white"/>
</clipPath>
</defs>
</svg>
