<?xml version="1.0" encoding="UTF-8"?>
<svg id="Layer_1" xmlns="http://www.w3.org/2000/svg" viewBox="0 0 866.89 391.77">
  <g>
    <path d="M82.09,390.99v-39.54h5.91l9.86,26.95c1.04,2.88,2.01,5.81,2.93,8.81h.07c.92-3,1.89-5.93,2.93-8.81l9.86-26.95h5.71v39.54h-3.53v-35.76h-.05c-1.11,3.39-2.28,6.71-3.51,10l-9.42,25.76h-4.24l-9.47-25.76c-1.21-3.29-2.37-6.61-3.46-10h-.05v35.76h-3.53Z"/>
    <path d="M179.4,390.99l-3.75-10.9h-17.24l-3.75,10.9h-4.02l13.78-39.54h5.23l13.78,39.54h-4.02ZM159.54,376.75h14.96l-2.74-7.92c-1.65-4.75-3.05-9.13-4.67-14.19h-.15c-1.62,5.06-3.03,9.44-4.67,14.19l-2.74,7.92Z"/>
    <path d="M238.29,390.99l-13.68-21.12-6.18,6.76v14.36h-3.75v-39.54h3.75v20.44l17.75-20.44h5.21l-14.16,15.54,15.76,24h-4.7Z"/>
    <path d="M274.02,390.99v-39.54h23.9v3.27h-20.15v14.14h18.21v3.27h-18.21v15.59h20.15v3.27h-23.9Z"/>
    <path d="M368.68,390.99v-39.54h3.75v39.54h-3.75Z"/>
    <path d="M430.05,351.45v3.27h-11.36v36.27h-3.75v-36.27h-11.38v-3.27h26.49Z"/>
    <path d="M496.23,371.18c0-12.52,5.72-20.51,17.29-20.51,6.68,0,11.84,2.86,14.36,9.25l-3.49,1.69c-1.98-5.33-5.38-7.77-10.87-7.77-9.01,0-13.22,6.37-13.22,17.36s4.19,17.36,13.27,17.36c5.76,0,9.03-2.62,11.02-7.65l3.15,1.67c-2.35,6.15-7.14,9.18-14.21,9.18-11.6,0-17.29-8.04-17.29-20.58Z"/>
    <path d="M558.33,371.21c0-12.66,6.88-20.53,17.56-20.53s17.56,7.87,17.56,20.53-6.88,20.56-17.56,20.56-17.56-7.87-17.56-20.56ZM589.44,371.21c0-12.11-6.15-17.36-13.56-17.36s-13.56,5.25-13.56,17.36,6.13,17.39,13.56,17.39,13.56-5.28,13.56-17.39Z"/>
    <path d="M625.15,376.63v-25.18h3.75v25.54c0,8.23,2.91,11.53,10.17,11.53s10.17-3.29,10.17-11.53v-25.54h3.75v25.18c0,11.04-5.11,15.13-13.92,15.13s-13.92-4.09-13.92-15.13Z"/>
    <path d="M686.86,390.99v-39.54h5.3l14.84,26.93c1.57,2.83,2.98,5.59,4.45,8.47h.05v-9.49l.02-25.91h3.61v39.54h-5.3l-14.84-26.93c-1.57-2.83-2.98-5.59-4.45-8.47h-.05v9.49l-.02,25.91h-3.61Z"/>
    <path d="M772.78,351.45v3.27h-11.36v36.27h-3.75v-36.27h-11.38v-3.27h26.49Z"/>
  </g>
  <g>
    <path d="M520.27,1.32c26.84-1.39,47.47,19.25,46.09,46.09-1.39,26.84-24.27,49.72-51.1,51.1-26.84,1.39-47.47-19.25-46.09-46.09,1.39-26.84,24.27-49.72,51.1-51.1Z"/>
    <path d="M618.75,232.46l-74.06,73.46c-25.32,24.95-68.15,6.9-67.98-28.64l.15-32.08c.07-16.23-19.55-24.42-31.04-12.94h0l-74.09,73.53c-25.29,25-68.18,6.95-68.01-28.61l.15-35.03c.1-16.26-19.55-24.45-31.01-12.96h0l-74.09,73.48c-25.29,24.98-68.15,6.93-67.98-28.61v-.02l.15-35.06v-.12c0-16.16-19.58-24.28-31.01-12.84h0L13.49,312.42c-1.48,1.48-3.49,2.33-5.57,2.33-4.75,0-7.92-3.9-7.92-7.95,0-1.94.73-3.92,2.33-5.52L219.02,83.46c10.08-10.15,27.43-2.93,27.35,11.39l-.41,86.37c-.1,19.5,23.48,29.36,37.29,15.58h0l108.66-109.56c10.1-10.2,27.47-2.98,27.4,11.34l-.36,82.69c-.1,19.53,23.5,29.36,37.29,15.55h0l108.64-109.85c10.08-10.22,27.5-3.05,27.43,11.31l-.41,82.71c-.1,19.53,23.5,29.34,37.31,15.55h0L822.41,2.74c1.72-1.74,4.09-2.74,6.54-2.74,5.55,0,9.23,4.55,9.23,9.3,0,2.28-.82,4.58-2.71,6.47l-28.76,28.73c-26.43,26.43-41.28,62.29-41.28,99.67v12.94c0,27.57,33.36,41.38,52.84,21.9l35.3-35.3c4.92-4.94,13.33-1.43,13.33,5.52v3.25c0,2.11-.82,4.09-2.3,5.57l-146.77,146.75c-25.22,25.22-68.35,7.24-68.18-28.42l.15-30.99c.07-16.23-19.55-24.42-31.04-12.94"/>
  </g>
</svg>