<svg width="25" height="25" viewBox="0 0 25 25" fill="none" xmlns="http://www.w3.org/2000/svg">
<path d="M8.33381 24.2429C7.70881 24.2429 7.17396 24.0205 6.72926 23.5759C6.28381 23.1304 6.06108 22.5952 6.06108 21.9702C6.06108 21.3452 6.28381 20.8099 6.72926 20.3645C7.17396 19.9198 7.70881 19.6974 8.33381 19.6974C8.95881 19.6974 9.49366 19.9198 9.93835 20.3645C10.3838 20.8099 10.6065 21.3452 10.6065 21.9702C10.6065 22.5952 10.3838 23.1304 9.93835 23.5759C9.49366 24.0205 8.95881 24.2429 8.33381 24.2429ZM19.6974 24.2429C19.0724 24.2429 18.5376 24.0205 18.0929 23.5759C17.6474 23.1304 17.4247 22.5952 17.4247 21.9702C17.4247 21.3452 17.6474 20.8099 18.0929 20.3645C18.5376 19.9198 19.0724 19.6974 19.6974 19.6974C20.3224 19.6974 20.8577 19.9198 21.3031 20.3645C21.7478 20.8099 21.9702 21.3452 21.9702 21.9702C21.9702 22.5952 21.7478 23.1304 21.3031 23.5759C20.8577 24.0205 20.3224 24.2429 19.6974 24.2429ZM7.3679 6.06108L10.0952 11.7429H18.0497L21.1747 6.06108H7.3679ZM6.28835 3.78835H23.0497C23.5611 3.78835 23.9115 3.97775 24.1009 4.35653C24.2902 4.73532 24.2808 5.13305 24.0724 5.54972L20.0384 12.8224C19.83 13.2012 19.5554 13.4948 19.2145 13.7031C18.8736 13.9115 18.4853 14.0156 18.0497 14.0156H9.58381L8.33381 16.2884H21.9702V18.5611H8.33381C7.48153 18.5611 6.83759 18.1868 6.40199 17.4384C5.96638 16.6906 5.94744 15.9474 6.34517 15.2088L7.87926 12.4247L3.78835 3.78835H1.51562V1.51562H5.20881L6.28835 3.78835Z" fill="black"/>
</svg>
