<svg width="25" height="25" viewBox="0 0 25 25" fill="none" xmlns="http://www.w3.org/2000/svg">
<path fill-rule="evenodd" clip-rule="evenodd" d="M6.25 12.5C6.25 10.0034 6.25 8.75506 6.84492 7.85594C7.11059 7.45444 7.45444 7.11059 7.85594 6.84492C8.75506 6.25 10.0034 6.25 12.5 6.25C14.9966 6.25 16.2449 6.25 17.1441 6.84492C17.5456 7.11059 17.8894 7.45444 18.1551 7.85594C18.75 8.75506 18.75 10.0034 18.75 12.5C18.75 14.9966 18.75 16.2449 18.1551 17.1441C17.8894 17.5456 17.5456 17.8894 17.1441 18.1551C16.2449 18.75 14.9966 18.75 12.5 18.75C10.0034 18.75 8.75506 18.75 7.85594 18.1551C7.45444 17.8894 7.11059 17.5456 6.84492 17.1441C6.25 16.2449 6.25 14.9966 6.25 12.5ZM15.7356 12.5002C15.7356 14.2872 14.2869 15.7359 12.4999 15.7359C10.7129 15.7359 9.26419 14.2872 9.26419 12.5002C9.26419 10.7131 10.7129 9.26446 12.4999 9.26446C14.2869 9.26446 15.7356 10.7131 15.7356 12.5002ZM12.4999 14.6411C13.6823 14.6411 14.6409 13.6826 14.6409 12.5002C14.6409 11.3177 13.6823 10.3592 12.4999 10.3592C11.3175 10.3592 10.3589 11.3177 10.3589 12.5002C10.3589 13.6826 11.3175 14.6411 12.4999 14.6411ZM15.8634 9.86219C16.2833 9.86219 16.6237 9.52179 16.6237 9.10189C16.6237 8.68199 16.2833 8.3416 15.8634 8.3416C15.4435 8.3416 15.1031 8.68199 15.1031 9.10189C15.1031 9.52179 15.4435 9.86219 15.8634 9.86219Z" fill="white"/>
</svg>
