<svg width="25" height="25" viewBox="0 0 25 25" fill="none" xmlns="http://www.w3.org/2000/svg">
<path d="M18.5939 10.9623C18.5939 12.8297 17.9876 14.5548 16.9663 15.9543L22.1178 21.1089C22.6265 21.6175 22.6265 22.4433 22.1178 22.9519C21.6092 23.4605 20.7832 23.4605 20.2745 22.9519L15.1228 17.7973C13.7231 18.8225 11.9978 19.4246 10.1299 19.4246C5.45445 19.4246 1.66602 15.6369 1.66602 10.9623C1.66602 6.28769 5.45445 2.5 10.1299 2.5C14.8055 2.5 18.5939 6.28769 18.5939 10.9623ZM10.1299 16.8208C10.8994 16.8208 11.6614 16.6693 12.3723 16.3748C13.0833 16.0804 13.7293 15.6489 14.2733 15.1049C14.8175 14.5609 15.2491 13.9151 15.5436 13.2043C15.8381 12.4935 15.9896 11.7317 15.9896 10.9623C15.9896 10.1929 15.8381 9.43117 15.5436 8.72033C15.2491 8.00956 14.8175 7.36372 14.2733 6.81971C13.7293 6.27569 13.0833 5.84416 12.3723 5.54974C11.6614 5.25532 10.8994 5.10378 10.1299 5.10378C9.36043 5.10378 8.59851 5.25532 7.88757 5.54974C7.17665 5.84416 6.53068 6.27569 5.98657 6.81971C5.44244 7.36372 5.01082 8.00956 4.71635 8.72033C4.42187 9.43117 4.27031 10.1929 4.27031 10.9623C4.27031 11.7317 4.42187 12.4935 4.71635 13.2043C5.01082 13.9151 5.44244 14.5609 5.98657 15.1049C6.53068 15.6489 7.17665 16.0804 7.88757 16.3748C8.59851 16.6693 9.36043 16.8208 10.1299 16.8208Z" fill="black"/>
</svg>
