<svg width="25" height="25" viewBox="0 0 25 25" fill="none" xmlns="http://www.w3.org/2000/svg">
<path fill-rule="evenodd" clip-rule="evenodd" d="M0.714844 8.69022C0.714844 5.06843 3.64069 2.14258 7.26249 2.14258C9.55206 2.14258 11.4048 3.36479 12.6196 4.93744C13.8344 3.36479 15.6871 2.14258 17.9768 2.14258C21.5985 2.14258 24.5243 5.06843 24.5243 8.69022C24.5243 10.0399 24.1171 11.2951 23.4153 12.3331C23.113 12.783 22.3108 13.7043 21.3744 14.7446C20.4025 15.8245 19.2008 17.1248 18.0331 18.376C16.8646 19.6279 15.7268 20.8344 14.8813 21.7275C14.4585 22.1742 14.1086 22.5427 13.8643 22.7996L13.4815 23.2019C13.4815 23.2019 13.4811 23.2023 12.6196 22.3806C11.7581 23.2023 11.758 23.2022 11.758 23.2022L11.3748 22.7996C11.1306 22.5427 10.7807 22.1742 10.3579 21.7275C9.51242 20.8344 8.37456 19.6279 7.20613 18.376C6.03844 17.1248 4.83672 15.8245 3.86478 14.7446C2.92702 13.7027 2.12376 12.7801 1.82245 12.3311C1.12151 11.2934 0.714844 10.0389 0.714844 8.69022ZM12.6196 22.3806L11.758 23.2022C11.9827 23.4377 12.2941 23.5711 12.6196 23.5711C12.9451 23.5711 13.2568 23.4374 13.4815 23.2019L12.6196 22.3806ZM12.6196 20.6528C12.7796 20.4841 12.9582 20.2957 13.1522 20.0907C13.9953 19.2001 15.1291 17.998 16.2924 16.7514C17.4566 15.5041 18.647 14.2159 19.6047 13.1518C20.595 12.0516 21.2577 11.2762 21.4398 11.0041L21.4429 10.9996C21.884 10.3472 22.1434 9.55486 22.1434 8.69022C22.1434 6.38339 20.2836 4.52353 17.9768 4.52353C16.5797 4.52353 15.3542 5.27165 14.4728 6.43351L13.5676 7.62451C13.2148 8.09493 13.1522 8.39258 12.6196 8.39258C12.0871 8.39258 12.0243 8.09493 11.6719 7.62493L10.7671 6.43434C9.88563 5.27248 8.65949 4.52353 7.26249 4.52353C4.95566 4.52353 3.09579 6.38339 3.09579 8.69022C3.09579 9.55486 3.35526 10.3472 3.79632 10.9996L3.79937 11.0041C3.98149 11.2762 4.64426 12.0516 5.63448 13.1518C6.59222 14.2159 7.78263 15.5041 8.94677 16.7514C10.1101 17.998 11.2439 19.2001 12.0871 20.0907C12.2811 20.2957 12.4596 20.4841 12.6196 20.6528Z" fill="black"/>
</svg>
