<svg width="46" height="18" viewBox="0 0 46 18" fill="none" xmlns="http://www.w3.org/2000/svg">
<path d="M42.7517 0.45936L38.9857 9.04136L34.7157 0.45936H31.4391L37.4737 12.3734L34.9817 17.9314H38.1597L45.9157 0.45936H42.7517ZM29.6334 13.7314H26.5114V12.4852C25.3914 13.4512 24.0332 13.9974 22.4092 13.9974C18.6852 13.9974 15.7592 10.9594 15.7592 7.09536C15.7592 3.21736 18.6712 0.193359 22.4092 0.193359C24.0332 0.193359 25.3774 0.725359 26.5114 1.70536V0.45936H29.6334V13.7314ZM26.8754 7.09536C26.8754 4.58936 25.1252 2.69936 22.8152 2.69936C20.5052 2.69936 18.7554 4.60336 18.7554 7.09536C18.7554 9.60136 20.5052 11.4914 22.8152 11.4914C25.1252 11.4914 26.8754 9.60136 26.8754 7.09536ZM0.289116 17.9314H3.53725V12.6114C4.62925 13.5074 5.9454 14.0114 7.4994 14.0114C11.2234 14.0114 14.1494 10.9734 14.1494 7.10936C14.1494 3.23136 11.2374 0.20736 7.4994 0.20736C5.8754 0.20736 4.5314 0.739218 3.3974 1.71922V0.47336H0.275391V17.9314H0.289116ZM7.10726 2.69936C9.41726 2.69936 11.1671 4.60336 11.1671 7.09536C11.1671 9.60136 9.41726 11.4914 7.10726 11.4914C4.79726 11.4914 3.0474 9.58736 3.0474 7.09536C3.0334 4.58936 4.78326 2.69936 7.10726 2.69936Z" fill="black"/>
</svg>
