<svg width="28" height="29" viewBox="0 0 28 29" fill="none" xmlns="http://www.w3.org/2000/svg">
<path d="M24.697 15.921C24.7546 15.457 24.7977 14.993 24.7977 14.5C24.7977 14.007 24.7546 13.543 24.697 13.079L27.7339 10.6865C28.0073 10.469 28.0793 10.0775 27.9066 9.7585L25.028 4.7415C24.8985 4.5095 24.6538 4.379 24.3947 4.379C24.3084 4.379 24.222 4.3935 24.1501 4.4225L20.5663 5.8725C19.8178 5.2925 19.0119 4.814 18.1339 4.4515L17.587 0.609C17.5438 0.261 17.2415 0 16.8817 0H11.1246C10.7648 0 10.4626 0.261 10.4194 0.609L9.87246 4.4515C8.9945 4.814 8.18851 5.307 7.44009 5.8725L3.85629 4.4225C3.76994 4.3935 3.68358 4.379 3.59722 4.379C3.35255 4.379 3.10787 4.5095 2.97834 4.7415L0.0997871 9.7585C-0.0873185 10.0775 -0.00096187 10.469 0.2725 10.6865L3.30937 13.079C3.2518 13.543 3.20862 14.0215 3.20862 14.5C3.20862 14.9785 3.2518 15.457 3.30937 15.921L0.2725 18.3135C-0.00096187 18.531 -0.0729258 18.9225 0.0997871 19.2415L2.97834 24.2585C3.10787 24.4905 3.35255 24.621 3.61162 24.621C3.69797 24.621 3.78433 24.6065 3.85629 24.5775L7.44009 23.1275C8.18851 23.7075 8.9945 24.186 9.87246 24.5485L10.4194 28.391C10.4626 28.739 10.7648 29 11.1246 29H16.8817C17.2415 29 17.5438 28.739 17.587 28.391L18.1339 24.5485C19.0119 24.186 19.8178 23.693 20.5663 23.1275L24.1501 24.5775C24.2364 24.6065 24.3228 24.621 24.4091 24.621C24.6538 24.621 24.8985 24.4905 25.028 24.2585L27.9066 19.2415C28.0793 18.9225 28.0073 18.531 27.7339 18.3135L24.697 15.921ZM21.8472 13.4415C21.9048 13.891 21.9192 14.1955 21.9192 14.5C21.9192 14.8045 21.8904 15.1235 21.8472 15.5585L21.6457 17.197L22.9267 18.212L24.4811 19.43L23.4736 21.1845L21.6457 20.445L20.1489 19.836L18.8535 20.822C18.2346 21.286 17.6445 21.634 17.0544 21.8805L15.5288 22.504L15.2985 24.1425L15.0107 26.1H12.9957L12.7222 24.1425L12.4919 22.504L10.9663 21.8805C10.3474 21.6195 9.77171 21.286 9.196 20.851L7.88626 19.836L6.36063 20.4595L4.53275 21.199L3.52526 19.4445L5.07968 18.2265L6.36063 17.2115L6.15913 15.573C6.11595 15.1235 6.08717 14.79 6.08717 14.5C6.08717 14.21 6.11595 13.8765 6.15913 13.4415L6.36063 11.803L5.07968 10.788L3.52526 9.57L4.53275 7.8155L6.36063 8.555L7.85748 9.164L9.15282 8.178C9.77171 7.714 10.3618 7.366 10.9519 7.1195L12.4775 6.496L12.7078 4.8575L12.9957 2.9H14.9963L15.2697 4.8575L15.5 6.496L17.0257 7.1195C17.6445 7.3805 18.2203 7.714 18.796 8.149L20.1057 9.164L21.6313 8.5405L23.4592 7.801L24.4667 9.5555L22.9267 10.788L21.6457 11.803L21.8472 13.4415ZM14.0032 8.7C10.8224 8.7 8.24608 11.2955 8.24608 14.5C8.24608 17.7045 10.8224 20.3 14.0032 20.3C17.184 20.3 19.7603 17.7045 19.7603 14.5C19.7603 11.2955 17.184 8.7 14.0032 8.7ZM14.0032 17.4C12.42 17.4 11.1246 16.095 11.1246 14.5C11.1246 12.905 12.42 11.6 14.0032 11.6C15.5864 11.6 16.8817 12.905 16.8817 14.5C16.8817 16.095 15.5864 17.4 14.0032 17.4Z" fill="#CCCCCC"/>
</svg>
