<svg width="25" height="25" viewBox="0 0 25 25" fill="none" xmlns="http://www.w3.org/2000/svg">
<path fill-rule="evenodd" clip-rule="evenodd" d="M7.66457 1.83058C8.83665 0.65848 10.4264 0 12.084 0C13.7416 0 15.3313 0.65848 16.5034 1.83058C17.6755 3.00268 18.334 4.5924 18.334 6.25C18.334 7.9076 17.6755 9.49733 16.5034 10.6694C15.3313 11.8415 13.7416 12.5 12.084 12.5C10.4264 12.5 8.83665 11.8415 7.66457 10.6694C6.49247 9.49733 5.83398 7.9076 5.83398 6.25C5.83398 4.5924 6.49247 3.00268 7.66457 1.83058ZM12.084 2.5C11.0894 2.5 10.1356 2.89509 9.43232 3.59835C8.72907 4.30161 8.33398 5.25544 8.33398 6.25C8.33398 7.24456 8.72907 8.19839 9.43232 8.90167C10.1356 9.60492 11.0894 10 12.084 10C13.0786 10 14.0324 9.60492 14.7357 8.90167C15.4389 8.19839 15.834 7.24456 15.834 6.25C15.834 5.25544 15.4389 4.30161 14.7357 3.59835C14.0324 2.89509 13.0786 2.5 12.084 2.5ZM9.58398 17.5C8.5894 17.5 7.63559 17.8951 6.93233 18.5983C6.22908 19.3016 5.83398 20.2554 5.83398 21.25V23.75C5.83398 24.4403 5.27434 25 4.58398 25C3.89363 25 3.33398 24.4403 3.33398 23.75V21.25C3.33398 19.5924 3.99247 18.0027 5.16457 16.8306C6.33667 15.6585 7.92638 15 9.58398 15H14.584C16.2416 15 17.8313 15.6585 19.0034 16.8306C20.1755 18.0027 20.834 19.5924 20.834 21.25V23.75C20.834 24.4403 20.2743 25 19.584 25C18.8937 25 18.334 24.4403 18.334 23.75V21.25C18.334 20.2554 17.9389 19.3016 17.2357 18.5983C16.5324 17.8951 15.5786 17.5 14.584 17.5H9.58398Z" fill="black"/>
</svg>
