<svg width="25" height="25" viewBox="0 0 25 25" fill="none" xmlns="http://www.w3.org/2000/svg">
<path d="M12.8046 17.3477L9.98366 17.295C9.07029 17.2766 8.15465 17.3133 7.25919 17.123C5.89699 16.8386 5.80049 15.4442 5.69951 14.2746C5.56037 12.6303 5.61424 10.9561 5.87681 9.32547C6.02504 8.41053 6.6084 7.86458 7.51054 7.80517C10.5559 7.58956 13.6216 7.61511 16.6602 7.7157C16.9811 7.72492 17.3042 7.77532 17.6207 7.83269C19.1827 8.11249 19.2208 9.69263 19.322 11.0228C19.423 12.3667 19.3804 13.7175 19.1874 15.0523C19.0325 16.1574 18.7363 17.0842 17.486 17.1736C15.9195 17.2906 14.389 17.3848 12.8181 17.3548C12.8181 17.3477 12.8091 17.3477 12.8046 17.3477ZM11.1462 14.5498C12.3267 13.8572 13.4846 13.1761 14.6584 12.4881C13.4757 11.7954 12.3199 11.1143 11.1462 10.4263V14.5498Z" fill="white"/>
</svg>
