<svg width="73" height="26" viewBox="0 0 73 26" fill="none" xmlns="http://www.w3.org/2000/svg">
<g clip-path="url(#clip0_16_3399)">
<path d="M52.1009 19.0364L45.8646 25.0519C43.7325 27.095 40.1259 25.6169 40.1402 22.7066L40.1529 20.0797C40.1588 18.7506 38.5066 18.08 37.5391 19.02L31.3003 25.0412C29.1707 27.0884 25.5591 25.6103 25.5734 22.6984L25.586 19.8299C25.5945 18.4984 23.9398 17.8278 22.9748 18.7686L16.736 24.7857C14.6064 26.8313 10.9973 25.3532 11.0116 22.4429V22.4413L11.0243 19.5703V19.5605C11.0243 18.2372 9.37551 17.5723 8.41304 18.5091L1.13594 25.5841C1.01132 25.7053 0.842061 25.7749 0.666913 25.7749C0.266933 25.7749 0 25.4556 0 25.1239C0 24.9651 0.0614706 24.8029 0.196201 24.6719L18.4428 6.83598C19.2916 6.00482 20.7526 6.59605 20.7459 7.76868L20.7113 14.8413C20.7029 16.4381 22.6885 17.2455 23.8514 16.1171L33.0012 7.14551C33.8517 6.31026 35.3144 6.90149 35.3085 8.07412L35.2782 14.8454C35.2697 16.4447 37.257 17.2496 38.4182 16.1188L47.5664 7.1234C48.4152 6.28651 49.882 6.87365 49.8761 8.04955L49.8416 14.8225C49.8332 16.4217 51.8205 17.2251 52.9834 16.0958L69.2537 0.224374C69.3985 0.0818893 69.5981 0 69.8044 0C70.2717 0 70.5816 0.37259 70.5816 0.761556C70.5816 0.94826 70.5126 1.1366 70.3534 1.29137L67.9316 3.644C65.7061 5.80829 64.4556 8.74478 64.4556 11.8057V12.8654C64.4556 15.123 67.2647 16.2539 68.9051 14.6587L71.8775 11.7681C72.2918 11.3635 73 11.651 73 12.2201V12.4862C73 12.659 72.931 12.8211 72.8063 12.9423L60.4474 24.9593C58.3237 27.0245 54.6919 25.5522 54.7062 22.6321L54.7188 20.0944C54.7247 18.7654 53.0726 18.0947 52.1051 19.0348" fill="black"/>
<path d="M43.7729 0.117943C46.033 0.00411947 47.7702 1.69428 47.654 3.89214C47.5369 6.09001 45.6103 7.9636 43.3511 8.0766C41.091 8.19042 39.3538 6.50026 39.47 4.3024C39.587 2.10454 41.5137 0.230948 43.7729 0.117943Z" fill="black"/>
</g>
<defs>
<clipPath id="clip0_16_3399">
<rect width="73" height="26" fill="white"/>
</clipPath>
</defs>
</svg>
